{"asset":{"version":"2.0","generator":"babylon.js glTF exporter for Maya 2018 v20210507.3"},"scene":0,"scenes":[{"nodes":[0]}],"nodes":[{"children":[1,8],"name":"Cena"},{"children":[2,3,4,5,6,7],"name":"GE21RV"},{"mesh":0,"name":"Baixo"},{"mesh":1,"name":"Topo"},{"mesh":2,"name":"Esquerda"},{"mesh":3,"name":"Direita"},{"mesh":4,"name":"Trás"},{"mesh":5,"name":"Frente"},{"children":[9],"name":"_ambientLight1_"},{"name":"ambientLight1"}],"meshes":[{"primitives":[{"attributes":{"POSITION":1,"TANGENT":2,"NORMAL":3,"TEXCOORD_0":4},"indices":0,"material":0},{"attributes":{"POSITION":6,"TANGENT":7,"NORMAL":8,"TEXCOORD_0":9},"indices":5,"material":1}],"name":"Baixo"},{"primitives":[{"attributes":{"POSITION":11,"TANGENT":12,"NORMAL":13,"TEXCOORD_0":14},"indices":10,"material":0},{"attributes":{"POSITION":16,"TANGENT":17,"NORMAL":18,"TEXCOORD_0":19},"indices":15,"material":1}],"name":"Topo"},{"primitives":[{"attributes":{"POSITION":21,"TANGENT":22,"NORMAL":23,"TEXCOORD_0":24},"indices":20,"material":2},{"attributes":{"POSITION":26,"TANGENT":27,"NORMAL":28,"TEXCOORD_0":29},"indices":25,"material":1}],"name":"Esquerda"},{"primitives":[{"attributes":{"POSITION":31,"TANGENT":32,"NORMAL":33,"TEXCOORD_0":34},"indices":30,"material":2},{"attributes":{"POSITION":36,"TANGENT":37,"NORMAL":38,"TEXCOORD_0":39},"indices":35,"material":1}],"name":"Direita"},{"primitives":[{"attributes":{"POSITION":41,"TANGENT":42,"NORMAL":43,"TEXCOORD_0":44},"indices":40,"material":3},{"attributes":{"POSITION":46,"TANGENT":47,"NORMAL":48,"TEXCOORD_0":49},"indices":45,"material":1}],"name":"Trás"},{"primitives":[{"attributes":{"POSITION":51,"TANGENT":52,"NORMAL":53,"TEXCOORD_0":54},"indices":50,"material":3},{"attributes":{"POSITION":56,"TANGENT":57,"NORMAL":58,"TEXCOORD_0":59},"indices":55,"material":1}],"name":"Frente"}],"accessors":[{"bufferView":0,"componentType":5123,"count":12,"type":"SCALAR","name":"accessorIndices"},{"bufferView":1,"componentType":5126,"count":8,"max":[0.049999997,0.02,0.049999997],"min":[-0.049999997,0.01,-0.049999997],"type":"VEC3","name":"accessorPositions"},{"bufferView":2,"componentType":5126,"count":8,"type":"VEC4","name":"accessorTangents"},{"bufferView":1,"byteOffset":96,"componentType":5126,"count":8,"type":"VEC3","name":"accessorNormals"},{"bufferView":3,"componentType":5126,"count":8,"type":"VEC2","name":"accessorUVs"},{"bufferView":0,"byteOffset":24,"componentType":5123,"count":24,"type":"SCALAR","name":"accessorIndices"},{"bufferView":1,"byteOffset":192,"componentType":5126,"count":16,"max":[0.049999997,0.02,0.049999997],"min":[-0.049999997,0.01,-0.049999997],"type":"VEC3","name":"accessorPositions"},{"bufferView":2,"byteOffset":128,"componentType":5126,"count":16,"type":"VEC4","name":"accessorTangents"},{"bufferView":1,"byteOffset":384,"componentType":5126,"count":16,"type":"VEC3","name":"accessorNormals"},{"bufferView":3,"byteOffset":64,"componentType":5126,"count":16,"type":"VEC2","name":"accessorUVs"},{"bufferView":0,"byteOffset":72,"componentType":5123,"count":12,"type":"SCALAR","name":"accessorIndices"},{"bufferView":1,"byteOffset":576,"componentType":5126,"count":8,"max":[0.049999997,0.149999991,0.049999997],"min":[-0.049999997,0.14,-0.049999997],"type":"VEC3","name":"accessorPositions"},{"bufferView":2,"byteOffset":384,"componentType":5126,"count":8,"type":"VEC4","name":"accessorTangents"},{"bufferView":1,"byteOffset":672,"componentType":5126,"count":8,"type":"VEC3","name":"accessorNormals"},{"bufferView":3,"byteOffset":192,"componentType":5126,"count":8,"type":"VEC2","name":"accessorUVs"},{"bufferView":0,"byteOffset":96,"componentType":5123,"count":24,"type":"SCALAR","name":"accessorIndices"},{"bufferView":1,"byteOffset":768,"componentType":5126,"count":16,"max":[0.049999997,0.149999991,0.049999997],"min":[-0.049999997,0.14,-0.049999997],"type":"VEC3","name":"accessorPositions"},{"bufferView":2,"byteOffset":512,"componentType":5126,"count":16,"type":"VEC4","name":"accessorTangents"},{"bufferView":1,"byteOffset":960,"componentType":5126,"count":16,"type":"VEC3","name":"accessorNormals"},{"bufferView":3,"byteOffset":256,"componentType":5126,"count":16,"type":"VEC2","name":"accessorUVs"},{"bufferView":0,"byteOffset":144,"componentType":5123,"count":12,"type":"SCALAR","name":"accessorIndices"},{"bufferView":1,"byteOffset":1152,"componentType":5126,"count":8,"max":[-0.06,0.13,0.049999997],"min":[-0.07,0.03,-0.049999997],"type":"VEC3","name":"accessorPositions"},{"bufferView":2,"byteOffset":768,"componentType":5126,"count":8,"type":"VEC4","name":"accessorTangents"},{"bufferView":1,"byteOffset":1248,"componentType":5126,"count":8,"type":"VEC3","name":"accessorNormals"},{"bufferView":3,"byteOffset":384,"componentType":5126,"count":8,"type":"VEC2","name":"accessorUVs"},{"bufferView":0,"byteOffset":168,"componentType":5123,"count":24,"type":"SCALAR","name":"accessorIndices"},{"bufferView":1,"byteOffset":1344,"componentType":5126,"count":16,"max":[-0.06,0.13,0.049999997],"min":[-0.07,0.03,-0.049999997],"type":"VEC3","name":"accessorPositions"},{"bufferView":2,"byteOffset":896,"componentType":5126,"count":16,"type":"VEC4","name":"accessorTangents"},{"bufferView":1,"byteOffset":1536,"componentType":5126,"count":16,"type":"VEC3","name":"accessorNormals"},{"bufferView":3,"byteOffset":448,"componentType":5126,"count":16,"type":"VEC2","name":"accessorUVs"},{"bufferView":0,"byteOffset":216,"componentType":5123,"count":12,"type":"SCALAR","name":"accessorIndices"},{"bufferView":1,"byteOffset":1728,"componentType":5126,"count":8,"max":[0.07,0.13,0.049999997],"min":[0.06,0.03,-0.049999997],"type":"VEC3","name":"accessorPositions"},{"bufferView":2,"byteOffset":1152,"componentType":5126,"count":8,"type":"VEC4","name":"accessorTangents"},{"bufferView":1,"byteOffset":1824,"componentType":5126,"count":8,"type":"VEC3","name":"accessorNormals"},{"bufferView":3,"byteOffset":576,"componentType":5126,"count":8,"type":"VEC2","name":"accessorUVs"},{"bufferView":0,"byteOffset":240,"componentType":5123,"count":24,"type":"SCALAR","name":"accessorIndices"},{"bufferView":1,"byteOffset":1920,"componentType":5126,"count":16,"max":[0.07,0.13,0.049999997],"min":[0.06,0.03,-0.049999997],"type":"VEC3","name":"accessorPositions"},{"bufferView":2,"byteOffset":1280,"componentType":5126,"count":16,"type":"VEC4","name":"accessorTangents"},{"bufferView":1,"byteOffset":2112,"componentType":5126,"count":16,"type":"VEC3","name":"accessorNormals"},{"bufferView":3,"byteOffset":640,"componentType":5126,"count":16,"type":"VEC2","name":"accessorUVs"},{"bufferView":0,"byteOffset":288,"componentType":5123,"count":12,"type":"SCALAR","name":"accessorIndices"},{"bufferView":1,"byteOffset":2304,"componentType":5126,"count":8,"max":[0.049999997,0.13,-0.06],"min":[-0.049999997,0.03,-0.07],"type":"VEC3","name":"accessorPositions"},{"bufferView":2,"byteOffset":1536,"componentType":5126,"count":8,"type":"VEC4","name":"accessorTangents"},{"bufferView":1,"byteOffset":2400,"componentType":5126,"count":8,"type":"VEC3","name":"accessorNormals"},{"bufferView":3,"byteOffset":768,"componentType":5126,"count":8,"type":"VEC2","name":"accessorUVs"},{"bufferView":0,"byteOffset":312,"componentType":5123,"count":24,"type":"SCALAR","name":"accessorIndices"},{"bufferView":1,"byteOffset":2496,"componentType":5126,"count":16,"max":[0.049999997,0.13,-0.06],"min":[-0.049999997,0.03,-0.07],"type":"VEC3","name":"accessorPositions"},{"bufferView":2,"byteOffset":1664,"componentType":5126,"count":16,"type":"VEC4","name":"accessorTangents"},{"bufferView":1,"byteOffset":2688,"componentType":5126,"count":16,"type":"VEC3","name":"accessorNormals"},{"bufferView":3,"byteOffset":832,"componentType":5126,"count":16,"type":"VEC2","name":"accessorUVs"},{"bufferView":0,"byteOffset":360,"componentType":5123,"count":12,"type":"SCALAR","name":"accessorIndices"},{"bufferView":1,"byteOffset":2880,"componentType":5126,"count":8,"max":[0.049999997,0.13,0.07],"min":[-0.049999997,0.03,0.06],"type":"VEC3","name":"accessorPositions"},{"bufferView":2,"byteOffset":1920,"componentType":5126,"count":8,"type":"VEC4","name":"accessorTangents"},{"bufferView":1,"byteOffset":2976,"componentType":5126,"count":8,"type":"VEC3","name":"accessorNormals"},{"bufferView":3,"byteOffset":960,"componentType":5126,"count":8,"type":"VEC2","name":"accessorUVs"},{"bufferView":0,"byteOffset":384,"componentType":5123,"count":24,"type":"SCALAR","name":"accessorIndices"},{"bufferView":1,"byteOffset":3072,"componentType":5126,"count":16,"max":[0.049999997,0.13,0.07],"min":[-0.049999997,0.03,0.06],"type":"VEC3","name":"accessorPositions"},{"bufferView":2,"byteOffset":2048,"componentType":5126,"count":16,"type":"VEC4","name":"accessorTangents"},{"bufferView":1,"byteOffset":3264,"componentType":5126,"count":16,"type":"VEC3","name":"accessorNormals"},{"bufferView":3,"byteOffset":1024,"componentType":5126,"count":16,"type":"VEC2","name":"accessorUVs"},{"bufferView":4,"componentType":5126,"count":332,"max":[49.9583321],"min":[0],"type":"SCALAR","name":"accessorAnimationInput"},{"bufferView":5,"componentType":5126,"count":332,"type":"VEC4","name":"accessorAnimationRotations"}],"bufferViews":[{"buffer":0,"byteLength":432,"name":"bufferViewScalar"},{"buffer":0,"byteOffset":432,"byteLength":3456,"byteStride":12,"name":"bufferViewFloatVec3"},{"buffer":0,"byteOffset":3888,"byteLength":2304,"byteStride":16,"name":"bufferViewFloatVec4"},{"buffer":0,"byteOffset":6192,"byteLength":1152,"byteStride":8,"name":"bufferViewFloatVec2"},{"buffer":0,"byteOffset":7344,"byteLength":1328,"name":"bufferViewAnimationFloatScalar"},{"buffer":0,"byteOffset":8672,"byteLength":5312,"name":"bufferViewAnimationFloatVec4"}],"buffers":[{"uri":"data:application/octet-stream;base64,","byteLength":13984}],"materials":[{"pbrMetallicRoughness":{"baseColorFactor":[0.1092,0.130904287,0.156,1],"metallicFactor":0,"roughnessFactor":0.201679826},"name":"Cinza"},{"pbrMetallicRoughness":{"metallicFactor":0,"roughnessFactor":0.201679826},"name":"Branco"},{"pbrMetallicRoughness":{"baseColorFactor":[0.716,0.415065259,0,1],"metallicFactor":0,"roughnessFactor":0.201679826},"name":"Amarelo"},{"pbrMetallicRoughness":{"baseColorFactor":[0.162,0,0,1],"metallicFactor":0,"roughnessFactor":0.201679826},"name":"Vermelho"}],"animations":[{"channels":[{"sampler":0,"target":{"node":1,"path":"rotation"}}],"samplers":[{"input":60,"output":61}],"name":"All Animations"}]}